<svg xmlns="http://www.w3.org/2000/svg" xmlns:xlink="http://www.w3.org/1999/xlink" width="382" height="444"><defs><linearGradient id="a" x1="50%" x2="50%" y1="11.3%" y2="100%"><stop offset="0%" stop-color="#EAA9C4"/><stop offset="100%" stop-color="#C42E6C" stop-opacity="0"/></linearGradient><linearGradient id="g" x1="50%" x2="50%" y1="11.3%" y2="100%"><stop offset="0%" stop-color="#EAA9C4"/><stop offset="100%" stop-color="#C42E6C" stop-opacity="0"/></linearGradient><linearGradient id="j" x1="50%" x2="50%" y1="11.3%" y2="100%"><stop offset="0%" stop-color="#E673A2"/><stop offset="100%" stop-color="#C00D57" stop-opacity="0"/></linearGradient><linearGradient id="m" x1="15.4%" x2="122.9%" y1="54%" y2="28.9%"><stop offset="0%" stop-color="#EAA9C4"/><stop offset="100%" stop-color="#C42E6C" stop-opacity="0"/></linearGradient><linearGradient id="n" x1="50%" x2="50%" y1="11.3%" y2="100%"><stop offset="0%" stop-color="#EAA9C4"/><stop offset="100%" stop-color="#C42E6C" stop-opacity="0"/></linearGradient><linearGradient id="o" x1="50%" x2="50%" y1="11.3%" y2="100%"><stop offset="0%" stop-color="#E673A2"/><stop offset="100%" stop-color="#C00D57" stop-opacity="0"/></linearGradient><linearGradient id="r" x1="15.4%" x2="122.9%" y1="54.5%" y2="26.1%"><stop offset="0%" stop-color="#EAA9C4"/><stop offset="100%" stop-color="#C42E6C" stop-opacity="0"/></linearGradient><linearGradient id="u" x1="50%" x2="50%" y1="11.3%" y2="100%"><stop offset="0%" stop-color="#FFF"/><stop offset="100%" stop-color="#C42E6C" stop-opacity="0"/></linearGradient><linearGradient id="x" x1="50%" x2="50%" y1="11.3%" y2="100%"><stop offset="0%" stop-color="#E673A2"/><stop offset="100%" stop-color="#C00D57" stop-opacity="0"/></linearGradient><linearGradient id="A" x1="15.4%" x2="122.9%" y1="54%" y2="28.9%"><stop offset="0%" stop-color="#EAA9C4"/><stop offset="100%" stop-color="#C42E6C" stop-opacity="0"/></linearGradient><linearGradient id="D" x1="87.1%" x2="11.4%" y1="50%" y2="50%"><stop offset="0%" stop-color="#FF7EA7"/><stop offset="100%" stop-color="#F4487D" stop-opacity=".2"/></linearGradient><linearGradient id="G" x1="30.4%" x2="53.5%" y1="23.7%" y2="67%"><stop offset="0%" stop-color="#B9437C"/><stop offset="100%" stop-color="#1A2536"/></linearGradient><linearGradient id="H" x1="5.9%" x2="66.2%" y1="47.6%" y2="27.4%"><stop offset="0%" stop-color="#D45D96" stop-opacity="0"/><stop offset="50%" stop-color="#FED2E9"/><stop offset="100%" stop-color="#C42E6C" stop-opacity="0"/></linearGradient><linearGradient id="I" x1="50%" x2="61.6%" y1="6.4%" y2="79.7%"><stop offset="0%" stop-color="#5F80AB"/><stop offset="100%" stop-color="#293F64"/></linearGradient><linearGradient id="J" x1="41.4%" x2="51.5%" y1="0%" y2="82.2%"><stop offset="0%" stop-color="#B9437C"/><stop offset="100%" stop-color="#1A2536"/></linearGradient><linearGradient id="K" x1="30.5%" x2="57.1%" y1="45.4%" y2="7.1%"><stop offset="0%" stop-color="#D45D96" stop-opacity="0"/><stop offset="50%" stop-color="#FED2E9"/><stop offset="100%" stop-color="#C42E6C" stop-opacity="0"/></linearGradient><linearGradient id="N" x1="50%" x2="55.6%" y1="6.4%" y2="79.2%"><stop offset="0%" stop-color="#FE68AB"/><stop offset="100%" stop-color="#293F64"/></linearGradient><linearGradient id="Q" x1="91.6%" x2="39.3%" y1="51.5%" y2="50%"><stop offset="0%" stop-color="#F878B2" stop-opacity="0"/><stop offset="100%" stop-color="#EF437A"/></linearGradient><linearGradient id="R" x1="57.8%" x2="45.9%" y1="50%" y2="123.9%"><stop offset="0%" stop-color="#F44881"/><stop offset="100%" stop-color="#EC454F"/></linearGradient><linearGradient id="W" x1="35%" x2="61.8%" y1="73.8%" y2="66.3%"><stop offset="0%" stop-color="#82569D" stop-opacity=".8"/><stop offset="100%" stop-color="#1C2D4B"/></linearGradient><linearGradient id="X" x1="0%" x2="62.6%" y1="-6.1%" y2="73.7%"><stop offset="0%" stop-color="#3F213A"/><stop offset="100%" stop-color="#132138"/></linearGradient><linearGradient id="Y" x1="0%" x2="62.6%" y1="-10.1%" y2="75.4%"><stop offset="0%" stop-color="#563050"/><stop offset="100%" stop-color="#203454"/></linearGradient><linearGradient id="Z" x1=".1%" x2="62.6%" y1="-19.1%" y2="79.2%"><stop offset="0%" stop-color="#2E4468"/><stop offset="100%" stop-color="#132138"/></linearGradient><linearGradient id="aa" x1="3.4%" x2="61.8%" y1="0%" y2="79.2%"><stop offset="0%" stop-color="#844377"/><stop offset="100%" stop-color="#203454"/></linearGradient><linearGradient id="ad" x1="50.1%" x2="49.9%" y1="90.3%" y2="-9.6%"><stop offset="0%" stop-color="#F878B2" stop-opacity="0"/><stop offset="100%" stop-color="#EF437A"/></linearGradient><linearGradient id="ae" x1="146.5%" x2="11.4%" y1="68.2%" y2="41.1%"><stop offset="0%" stop-color="#F4487D" stop-opacity=".2"/><stop offset="100%" stop-color="#FF7EA7"/></linearGradient><linearGradient id="af" x1="74.5%" x2="0%" y1="89.6%" y2="0%"><stop offset="0%" stop-color="#FB3B78"/><stop offset="100%" stop-color="#EFC7D8"/></linearGradient><linearGradient id="ai" x1="91.6%" x2="39.3%" y1="77.6%" y2="50%"><stop offset="0%" stop-color="#F878B2" stop-opacity="0"/><stop offset="100%" stop-color="#EF437A"/></linearGradient><linearGradient id="aj" x1="49.3%" x2="50.4%" y1="-98.3%" y2="100%"><stop offset="0%" stop-color="#1F2C43" stop-opacity="0"/><stop offset="100%" stop-color="#040507"/></linearGradient><filter id="b" width="138.7%" height="137.4%" x="-19.4%" y="-18.7%" filterUnits="objectBoundingBox"><feOffset in="SourceAlpha" result="shadowOffsetOuter1"/><feGaussianBlur in="shadowOffsetOuter1" result="shadowBlurOuter1" stdDeviation="12"/><feColorMatrix in="shadowBlurOuter1" values="0 0 0 0 0.951002038 0 0 0 0 0.370524746 0 0 0 0 0.61045536 0 0 0 1 0"/></filter><filter id="e" width="394%" height="139.3%" x="-147%" y="-19.6%" filterUnits="objectBoundingBox"><feOffset in="SourceAlpha" result="shadowOffsetOuter1"/><feGaussianBlur in="shadowOffsetOuter1" result="shadowBlurOuter1" stdDeviation="12"/><feColorMatrix in="shadowBlurOuter1" values="0 0 0 0 0.951002038 0 0 0 0 0.370524746 0 0 0 0 0.61045536 0 0 0 1 0"/></filter><filter id="h" width="394%" height="139.3%" x="-147%" y="-19.7%" filterUnits="objectBoundingBox"><feOffset in="SourceAlpha" result="shadowOffsetOuter1"/><feGaussianBlur in="shadowOffsetOuter1" result="shadowBlurOuter1" stdDeviation="12"/><feColorMatrix in="shadowBlurOuter1" values="0 0 0 0 0.951002038 0 0 0 0 0.370524746 0 0 0 0 0.61045536 0 0 0 1 0"/></filter><filter id="k" width="247%" height="352.5%" x="-73.5%" y="-126.3%" filterUnits="objectBoundingBox"><feOffset in="SourceAlpha" result="shadowOffsetOuter1"/><feGaussianBlur in="shadowOffsetOuter1" result="shadowBlurOuter1" stdDeviation="12"/><feColorMatrix in="shadowBlurOuter1" values="0 0 0 0 0.951002038 0 0 0 0 0.370524746 0 0 0 0 0.61045536 0 0 0 1 0"/></filter><filter id="p" width="249.1%" height="340.9%" x="-74.6%" y="-120.4%" filterUnits="objectBoundingBox"><feOffset in="SourceAlpha" result="shadowOffsetOuter1"/><feGaussianBlur in="shadowOffsetOuter1" result="shadowBlurOuter1" stdDeviation="14"/><feColorMatrix in="shadowBlurOuter1" values="0 0 0 0 0.951002038 0 0 0 0 0.370524746 0 0 0 0 0.61045536 0 0 0 1 0"/></filter><filter id="s" width="390.9%" height="146%" x="-145.5%" y="-23%" filterUnits="objectBoundingBox"><feOffset in="SourceAlpha" result="shadowOffsetOuter1"/><feGaussianBlur in="shadowOffsetOuter1" result="shadowBlurOuter1" stdDeviation="9.5"/><feColorMatrix in="shadowBlurOuter1" values="0 0 0 0 0.951002038 0 0 0 0 0.370524746 0 0 0 0 0.61045536 0 0 0 1 0"/></filter><filter id="v" width="390.9%" height="146%" x="-145.5%" y="-23%" filterUnits="objectBoundingBox"><feOffset in="SourceAlpha" result="shadowOffsetOuter1"/><feGaussianBlur in="shadowOffsetOuter1" result="shadowBlurOuter1" stdDeviation="9.5"/><feColorMatrix in="shadowBlurOuter1" values="0 0 0 0 0.951002038 0 0 0 0 0.370524746 0 0 0 0 0.61045536 0 0 0 1 0"/></filter><filter id="y" width="245.5%" height="349.9%" x="-72.7%" y="-124.9%" filterUnits="objectBoundingBox"><feOffset in="SourceAlpha" result="shadowOffsetOuter1"/><feGaussianBlur in="shadowOffsetOuter1" result="shadowBlurOuter1" stdDeviation="9.5"/><feColorMatrix in="shadowBlurOuter1" values="0 0 0 0 0.951002038 0 0 0 0 0.370524746 0 0 0 0 0.61045536 0 0 0 1 0"/></filter><filter id="C" width="118.8%" height="242.5%" x="-9.4%" y="-71.2%" filterUnits="objectBoundingBox"><feGaussianBlur in="SourceGraphic" stdDeviation="9.5"/></filter><filter id="L" width="108.9%" height="102.4%" x="-4.4%" y="-.4%" filterUnits="objectBoundingBox"><feGaussianBlur in="SourceGraphic" stdDeviation="3.4"/></filter><filter id="O" width="124.6%" height="203.9%" x="-12.3%" y="-52%" filterUnits="objectBoundingBox"><feMorphology in="SourceAlpha" operator="dilate" radius=".9" result="shadowSpreadOuter1"/><feOffset in="shadowSpreadOuter1" result="shadowOffsetOuter1"/><feMorphology in="SourceAlpha" radius="1" result="shadowInner"/><feOffset in="shadowInner" result="shadowInner"/><feComposite in="shadowOffsetOuter1" in2="shadowInner" operator="out" result="shadowOffsetOuter1"/><feGaussianBlur in="shadowOffsetOuter1" result="shadowBlurOuter1" stdDeviation="3.5"/><feColorMatrix in="shadowBlurOuter1" values="0 0 0 0 1 0 0 0 0 0.0915967988 0 0 0 0 0.38564639 0 0 0 1 0"/></filter><filter id="S" width="312.1%" height="314.3%" x="-106.1%" y="-107.1%" filterUnits="objectBoundingBox"><feGaussianBlur in="SourceGraphic" stdDeviation="29.9"/></filter><filter id="T" width="120.3%" height="110.1%" x="-10.1%" y="-4.3%" filterUnits="objectBoundingBox"><feMorphology in="SourceAlpha" operator="dilate" radius="1" result="shadowSpreadOuter1"/><feOffset in="shadowSpreadOuter1" result="shadowOffsetOuter1"/><feMorphology in="SourceAlpha" radius="1" result="shadowInner"/><feOffset in="shadowInner" result="shadowInner"/><feComposite in="shadowOffsetOuter1" in2="shadowInner" operator="out" result="shadowOffsetOuter1"/><feGaussianBlur in="shadowOffsetOuter1" result="shadowBlurOuter1" stdDeviation="7.5"/><feColorMatrix in="shadowBlurOuter1" values="0 0 0 0 1 0 0 0 0 0.794626524 0 0 0 0 0.903282378 0 0 0 1 0"/></filter><filter id="ab" width="588.9%" height="125.1%" x="-244.5%" y="-12.5%" filterUnits="objectBoundingBox"><feMorphology in="SourceAlpha" operator="dilate" radius=".9" result="shadowSpreadOuter1"/><feOffset in="shadowSpreadOuter1" result="shadowOffsetOuter1"/><feMorphology in="SourceAlpha" radius="1" result="shadowInner"/><feOffset in="shadowInner" result="shadowInner"/><feComposite in="shadowOffsetOuter1" in2="shadowInner" operator="out" result="shadowOffsetOuter1"/><feGaussianBlur in="shadowOffsetOuter1" result="shadowBlurOuter1" stdDeviation="3.5"/><feColorMatrix in="shadowBlurOuter1" values="0 0 0 0 1 0 0 0 0 0.0915967988 0 0 0 0 0.38564639 0 0 0 1 0"/></filter><filter id="ag" width="188%" height="188%" x="-44%" y="-44%" filterUnits="objectBoundingBox"><feMorphology in="SourceAlpha" operator="dilate" radius=".9" result="shadowSpreadOuter1"/><feOffset in="shadowSpreadOuter1" result="shadowOffsetOuter1"/><feMorphology in="SourceAlpha" radius="1" result="shadowInner"/><feOffset in="shadowInner" result="shadowInner"/><feComposite in="shadowOffsetOuter1" in2="shadowInner" operator="out" result="shadowOffsetOuter1"/><feGaussianBlur in="shadowOffsetOuter1" result="shadowBlurOuter1" stdDeviation="3.5"/><feColorMatrix in="shadowBlurOuter1" values="0 0 0 0 1 0 0 0 0 0.0915967988 0 0 0 0 0.38564639 0 0 0 1 0"/></filter><filter id="ak" width="335.5%" height="142.3%" x="-117.7%" y="-21.2%" filterUnits="objectBoundingBox"><feGaussianBlur in="SourceGraphic" stdDeviation="8.6"/></filter><path id="c" d="M186 60l-14 6-18 9v37l32-16V60zm-39 99v-37l-18 9-52 25v37l70-34zM0 145l70 47v-37l-36-24h-1v-1h-1v-1-87L13 30 0 21v124zM35 0L3 15l32 22 32-16L35 0zm17 117l19-9V27l-14 7-19 9v80l14-6zm99-85l-32 16 32 21 32-15-32-22zm-4 43l-18-13-14-9v37l19 12 13 9V75zm-73 75l47-22 23-12-32-21-37 18-33 16 32 21z"/><path id="f" d="M0 198V14l24 14v170z"/><path id="i" d="M24 198V28l25-14v184z"/><path id="l" d="M0 14l24 15 25-15L24 0z"/><path id="q" d="M0 16l28 19 28-19L28 0z"/><path id="t" d="M0 135V11l20 12v112z"/><path id="w" d="M20 135V23l19-12v124z"/><path id="z" d="M0 11l19 12 20-12L19 0z"/><path id="P" d="M121 159l95 22"/><path id="U" d="M36 11l184 95a13 13 0 017 10l10 149a13 13 0 01-9 13L47 331a13 13 0 01-17-12L17 23c-1-7 5-13 12-14a13 13 0 017 2z"/><path id="ac" d="M57 155l5 91"/><radialGradient id="d" r="105.6%" fx="50%" fy="50%" gradientTransform="matrix(0 .9643 -1.93068 0 1 0)"><stop offset="0%" stop-color="#FFF"/><stop offset="100%" stop-color="#C42E6C"/></radialGradient><radialGradient id="B" cx="52.1%" cy="30.6%" r="370.1%" fx="52.1%" fy="30.6%" gradientTransform="matrix(-.13183 0 0 -.25522 1 0)"><stop offset="0%"/><stop offset="100%" stop-opacity="0"/></radialGradient><radialGradient id="E" cx="4.7%" cy="3.9%" r="128%" fx="4.7%" fy="3.9%" gradientTransform="matrix(.05824 .68309 -.9983 .03985 0 0)"><stop offset="0%" stop-color="#31344A"/><stop offset="100%" stop-color="#1B283E"/></radialGradient><radialGradient id="F" cx="4.7%" cy="3.9%" r="88.4%" fx="4.7%" fy="3.9%" gradientTransform="matrix(.08438 .9896 -.58054 .14384 0 0)"><stop offset="0%" stop-color="#5F658A"/><stop offset="100%" stop-color="#1B283E"/></radialGradient><radialGradient id="M" cx="4.7%" cy="3.9%" r="88.4%" fx="4.7%" fy="3.9%" gradientTransform="scale(.59065 1) rotate(82 0 0)"><stop offset="0%" stop-color="#5F658A"/><stop offset="100%" stop-color="#1B283E"/></radialGradient><radialGradient id="V" cx="42.1%" cy="4.6%" r="127.5%" fx="42.1%" fy="4.6%" gradientTransform="matrix(.19658 .65122 -1.89301 .25208 0 0)"><stop offset="0%" stop-color="#FFF"/><stop offset="100%" stop-color="#C42E6C" stop-opacity="0"/></radialGradient><circle id="ah" cx="13" cy="13" r="13"/></defs><g fill="none" fill-rule="evenodd"><path fill="url(#a)" d="M0 145v211h71V192z" opacity=".6" transform="translate(24 22)"/><g transform="translate(24 22)"><use fill="#000" filter="url(#b)" xlink:href="#c"/><use fill="url(#d)" xlink:href="#c"/></g><g opacity=".5"><g transform="translate(226 90)"><use fill="#000" filter="url(#e)" xlink:href="#f"/><use fill="url(#g)" xlink:href="#f"/></g><g transform="translate(226 90)"><use fill="#000" filter="url(#h)" xlink:href="#i"/><use fill="url(#j)" xlink:href="#i"/></g><g transform="translate(226 90)"><use fill="#000" filter="url(#k)" xlink:href="#l"/><use fill="url(#m)" xlink:href="#l"/></g></g><g opacity=".1"><path fill="url(#n)" d="M0 241V16l28 19v206z" transform="translate(302 137)"/><path fill="url(#o)" d="M28 241V35l28-19v225z" transform="translate(302 137)"/><g transform="translate(302 137)"><use fill="#000" filter="url(#p)" xlink:href="#q"/><use fill="url(#r)" xlink:href="#q"/></g></g><g opacity=".1"><g transform="translate(291 78)"><use fill="#000" filter="url(#s)" xlink:href="#t"/><use fill="url(#u)" xlink:href="#t"/></g><g transform="translate(291 78)"><use fill="#000" filter="url(#v)" xlink:href="#w"/><use fill="url(#x)" xlink:href="#w"/></g><g transform="translate(291 78)"><use fill="#000" filter="url(#y)" xlink:href="#z"/><use fill="url(#A)" xlink:href="#z"/></g></g><g transform="translate(47 75)"><ellipse cx="152.9" cy="314.3" fill="url(#B)" filter="url(#C)" opacity=".7" rx="151.8" ry="20" transform="rotate(-12 153 314)"/><path stroke="url(#D)" stroke-linejoin="round" stroke-width="5.1" d="M196 313h-76"/><path fill="url(#E)" d="M18 15l15 4 172 93a13 13 0 017 11l10 144a13 13 0 01-9 13L45 332l-15 2a13 13 0 01-15-13L1 28a13 13 0 0117-13z" transform="translate(1)"/><path fill="#1B283E" d="M18 15l16 4 172 93a13 13 0 017 11l10 144a13 13 0 01-10 13L45 332l-15 2a13 13 0 01-15-13L2 28a13 13 0 0116-13z"/><path fill="url(#F)" d="M27 314h17l6 15-34 5c-1-6-1-11 1-14 3-5 7-6 10-6z" transform="scale(1 -1) rotate(9 4143 5)"/><path fill="url(#G)" stroke="url(#H)" stroke-width="1.3" d="M35 30L2 35c-1-6 0-11 1-13l6-6 16-5 10 19z" opacity=".9" transform="translate(1)"/><path fill="url(#I)" d="M36 11l184 95a13 13 0 017 10l10 149a13 13 0 01-9 13L47 331a13 13 0 01-17-12L17 23c-1-7 5-13 12-14a13 13 0 017 2z" transform="translate(1)"/><path fill="url(#J)" stroke="url(#K)" stroke-width="1.3" d="M228 278L47 330c-4 1-7 1-10-1a12 12 0 01-6-7 13 13 0 010-3L17 23a12 12 0 013-9 12 12 0 019-4l6 1 185 95a13 13 0 017 10l10 149-2 8a13 13 0 01-7 5z" opacity=".9" transform="translate(1)"/><path fill="#0E151F" d="M48 20l173 89a13 13 0 017 11l9 139a13 13 0 01-9 13L58 322c-7 2-14-2-16-9a13 13 0 01-1-4L29 33c-1-8 5-14 12-14a13 13 0 017 1z" filter="url(#L)" opacity=".3" transform="translate(1)"/><path fill="url(#E)" d="M18 15l15 4 172 93a13 13 0 017 11l10 144a13 13 0 01-9 13L45 332l-15 2a13 13 0 01-15-13L1 28a13 13 0 0117-13z" transform="translate(42)"/><path fill="#1B283E" d="M59 15l16 4 172 93a13 13 0 017 11l10 144a13 13 0 01-10 13L86 332l-15 2a13 13 0 01-14-13L43 28a13 13 0 0116-13z"/><path fill="url(#G)" stroke="url(#H)" stroke-width="1.3" d="M35 30L2 35c-1-6 0-11 1-13l6-6 16-5 10 19z" opacity=".9" transform="translate(42)"/><path fill="url(#M)" d="M27 313l17 1 6 15-34 5c-1-7-1-12 1-14 3-4 7-6 10-7z" transform="scale(1 -1) rotate(9 4163 266)"/><path fill="url(#I)" d="M36 11l184 95a13 13 0 017 10l10 149a13 13 0 01-9 13L47 331a13 13 0 01-17-12L17 23c-1-7 5-13 12-14a13 13 0 017 2z" transform="translate(42)"/><g transform="translate(57)"><path fill="url(#N)" d="M20 11l185 95a13 13 0 017 10l10 149a13 13 0 01-10 13L31 331a13 13 0 01-16-12L1 23c0-7 5-13 13-14a13 13 0 016 2z" opacity=".7"/><g stroke-linecap="round" stroke-linejoin="round"><use fill="#000" filter="url(#O)" xlink:href="#P"/><use stroke="url(#Q)" stroke-width="1.9" xlink:href="#P"/></g><ellipse cx="111.4" cy="159" fill="url(#R)" filter="url(#S)" rx="42.3" ry="41.9" style="mix-blend-mode:hard-light"/></g><g style="mix-blend-mode:overlay" transform="translate(42)"><use fill="#000" filter="url(#T)" xlink:href="#U"/><use stroke="url(#V)" stroke-width="1.9" xlink:href="#U"/></g><g><path stroke="#354D71" stroke-width="4.3" d="M46 138c-27 0 5 60-7 75-17 22-53-28-22-27"/><path stroke="url(#W)" stroke-width="4.3" d="M42 6c-27 0 4 59-7 74-18 22-54-28-22-27" transform="translate(4 133)"/><path fill="url(#X)" d="M6 3C4 6 4 7 6 9l7 1 2-4-2-5-7 2z" transform="translate(42 133)"/><path fill="url(#Y)" d="M2 1c-2 3-2 7 0 9h9l1-4-1-5H2z" transform="translate(42 133)"/><path fill="url(#Z)" d="M4 2C2 4 3 4 4 6l4 1 1-3-1-3-4 1z" transform="translate(12 182)"/><path fill="url(#aa)" d="M1 1v6h5l1-3-1-3H1z" transform="translate(12 182)"/></g><g stroke-linecap="round" stroke-linejoin="round"><use fill="#000" filter="url(#ab)" xlink:href="#ac"/><use stroke="url(#ad)" stroke-width="1.9" xlink:href="#ac"/></g></g><path stroke="url(#ae)" stroke-linejoin="round" stroke-width="5.1" d="M162 81L16 16" transform="rotate(58 -75 313)"/><g transform="scale(-1 1) rotate(-66 174 394)"><circle cx="7.3" cy="7.3" r="7.3" fill="url(#af)"/><path fill="#FFF" fill-opacity=".2" d="M7 0c2 0 4 1 5 3a7 7 0 00-9 9A7 7 0 017 0z"/></g><g transform="scale(-1 1) rotate(-66 63 307)"><circle cx="13" cy="13" r="13" fill="url(#af)"/><g stroke-linecap="round" stroke-linejoin="round"><use fill="#000" filter="url(#ag)" xlink:href="#ah"/><use stroke="url(#ai)" stroke-width="1.9" xlink:href="#ah"/></g><path fill="#FFF" fill-opacity=".2" d="M10 0c4 0 7 2 9 4a10 10 0 00-7-2 10 10 0 00-8 17 10 10 0 01-4-9C0 5 5 0 10 0z"/></g><path fill="url(#aj)" d="M197 243l4-9 18 119-8 3z" filter="url(#ak)" opacity=".7" style="mix-blend-mode:overlay" transform="translate(24 22)"/></g></svg>