<?xml version="1.0" encoding="UTF-8"?>
<svg width="46px" height="34px" viewBox="0 0 46 34" version="1.1" xmlns="http://www.w3.org/2000/svg" xmlns:xlink="http://www.w3.org/1999/xlink">
    <!-- Generator: Sketch 64 (93537) - https://sketch.com -->
    <title>laravel-logo</title>
    <desc>Created with Sketch.</desc>
    <defs>
        <rect id="path-1" x="0" y="0.814098587" width="50" height="49.0196078"></rect>
        <radialGradient cx="52.1011138%" cy="30.5938154%" fx="52.1011138%" fy="30.5938154%" r="291.991323%" gradientTransform="translate(0.521011,0.305938),scale(0.167115,1.000000),rotate(-180.000000),scale(1.000000,0.255220),translate(-0.521011,-0.305938)" id="radialGradient-3">
            <stop stop-color="#000000" offset="0%"></stop>
            <stop stop-color="#000000" stop-opacity="0.00169836957" offset="100%"></stop>
        </radialGradient>
        <filter x="-9.7%" y="-58.1%" width="119.4%" height="216.3%" filterUnits="objectBoundingBox" id="filter-4">
            <feGaussianBlur stdDeviation="1.00480769" in="SourceGraphic"></feGaussianBlur>
        </filter>
        <linearGradient x1="33.0385845%" y1="6.03305371%" x2="71.6814365%" y2="100%" id="linearGradient-5">
            <stop stop-color="#2E4469" offset="0%"></stop>
            <stop stop-color="#2E4469" stop-opacity="0" offset="100%"></stop>
        </linearGradient>
        <linearGradient x1="14.4842582%" y1="43.1206258%" x2="51.4141536%" y2="62.6974963%" id="linearGradient-6">
            <stop stop-color="#2F4568" offset="0%"></stop>
            <stop stop-color="#445D7F" stop-opacity="0" offset="100%"></stop>
        </linearGradient>
        <linearGradient x1="87.9591325%" y1="52.7731774%" x2="76.9764518%" y2="64.3175634%" id="linearGradient-7">
            <stop stop-color="#2E4469" offset="0%"></stop>
            <stop stop-color="#2E4469" stop-opacity="0" offset="100%"></stop>
        </linearGradient>
        <filter x="-2.5%" y="-5.7%" width="105.0%" height="110.4%" filterUnits="objectBoundingBox" id="filter-8">
            <feGaussianBlur stdDeviation="0.352564103" in="SourceGraphic"></feGaussianBlur>
        </filter>
        <linearGradient x1="26.2069297%" y1="35.74427%" x2="86.3494103%" y2="24.8153701%" id="linearGradient-9">
            <stop stop-color="#5B79A2" stop-opacity="0" offset="0%"></stop>
            <stop stop-color="#2E4469" offset="100%"></stop>
        </linearGradient>
        <linearGradient x1="-1.11022302e-14%" y1="50%" x2="100%" y2="50%" id="linearGradient-10">
            <stop stop-color="#5B79A2" offset="0%"></stop>
            <stop stop-color="#2E4469" offset="100%"></stop>
        </linearGradient>
        <linearGradient x1="50%" y1="0%" x2="50%" y2="100%" id="linearGradient-11">
            <stop stop-color="#5B79A2" offset="0%"></stop>
            <stop stop-color="#2E4469" offset="100%"></stop>
        </linearGradient>
        <filter x="-4.7%" y="-7.5%" width="109.4%" height="114.9%" filterUnits="objectBoundingBox" id="filter-12">
            <feGaussianBlur stdDeviation="0.369266827" in="SourceGraphic"></feGaussianBlur>
        </filter>
        <linearGradient x1="91.61934%" y1="52.5874398%" x2="39.2667363%" y2="50%" id="linearGradient-13">
            <stop stop-color="#F878B2" stop-opacity="0" offset="0%"></stop>
            <stop stop-color="#EF437A" offset="100%"></stop>
        </linearGradient>
        <path d="M22.6355156,11.1067694 L18.0153484,13.9950214 C17.8585244,14.0930584 17.6667356,14.1178054 17.4901625,14.0627874 L8.19592726,11.1668192 C8.07054099,11.1277504 7.9603641,11.0507429 7.88058973,10.9464158 L6.5649721,9.22588163 L6.5649721,9.22588163" id="path-14"></path>
        <filter x="-11.7%" y="-38.3%" width="123.4%" height="173.2%" filterUnits="objectBoundingBox" id="filter-15">
            <feMorphology radius="0.275" operator="dilate" in="SourceAlpha" result="shadowSpreadOuter1"></feMorphology>
            <feOffset dx="0" dy="0" in="shadowSpreadOuter1" result="shadowOffsetOuter1"></feOffset>
            <feMorphology radius="1" operator="erode" in="SourceAlpha" result="shadowInner"></feMorphology>
            <feOffset dx="0" dy="0" in="shadowInner" result="shadowInner"></feOffset>
            <feComposite in="shadowOffsetOuter1" in2="shadowInner" operator="out" result="shadowOffsetOuter1"></feComposite>
            <feGaussianBlur stdDeviation="0.5" in="shadowOffsetOuter1" result="shadowBlurOuter1"></feGaussianBlur>
            <feColorMatrix values="0 0 0 0 1   0 0 0 0 0.0915967988   0 0 0 0 0.38564639  0 0 0 1 0" type="matrix" in="shadowBlurOuter1"></feColorMatrix>
        </filter>
        <linearGradient x1="43.1921515%" y1="53.1063977%" x2="7.63542086%" y2="25.1003248%" id="linearGradient-16">
            <stop stop-color="#56749D" offset="0%"></stop>
            <stop stop-color="#7093C2" offset="100%"></stop>
        </linearGradient>
        <filter x="-70.5%" y="-71.9%" width="241.0%" height="243.8%" filterUnits="objectBoundingBox" id="filter-17">
            <feGaussianBlur stdDeviation="0.775641026" in="SourceGraphic"></feGaussianBlur>
        </filter>
        <linearGradient x1="12.1000242%" y1="81.3800478%" x2="67.3432379%" y2="27.2202478%" id="linearGradient-18">
            <stop stop-color="#F4487D" stop-opacity="0.159958107" offset="0%"></stop>
            <stop stop-color="#FF6E9C" offset="100%"></stop>
        </linearGradient>
        <linearGradient x1="0%" y1="50%" x2="124.705667%" y2="50%" id="linearGradient-19">
            <stop stop-color="#F44881" offset="0%"></stop>
            <stop stop-color="#E3356A" offset="100%"></stop>
        </linearGradient>
        <filter x="-70.5%" y="-71.9%" width="241.0%" height="243.8%" filterUnits="objectBoundingBox" id="filter-20">
            <feGaussianBlur stdDeviation="0.775641026" in="SourceGraphic"></feGaussianBlur>
        </filter>
        <linearGradient x1="6.9621797%" y1="120.334908%" x2="60.7371176%" y2="27.2202478%" id="linearGradient-21">
            <stop stop-color="#F4487D" stop-opacity="0.159958107" offset="0%"></stop>
            <stop stop-color="#FF6E9C" offset="100%"></stop>
        </linearGradient>
        <linearGradient x1="0%" y1="50%" x2="124.705667%" y2="50%" id="linearGradient-22">
            <stop stop-color="#F44881" offset="0%"></stop>
            <stop stop-color="#E3356A" offset="100%"></stop>
        </linearGradient>
        <linearGradient x1="33.0138776%" y1="50%" x2="56.1145873%" y2="24.8153701%" id="linearGradient-23">
            <stop stop-color="#5B79A2" stop-opacity="0" offset="0%"></stop>
            <stop stop-color="#2E4469" offset="100%"></stop>
        </linearGradient>
        <linearGradient x1="73.0955281%" y1="-23.5832805%" x2="6.20393727%" y2="142.519032%" id="linearGradient-24">
            <stop stop-color="#56749D" offset="0%"></stop>
            <stop stop-color="#25395B" offset="100%"></stop>
        </linearGradient>
        <linearGradient x1="20.2789196%" y1="17.0916256%" x2="77.708482%" y2="76.1418807%" id="linearGradient-25">
            <stop stop-color="#5B79A2" offset="0%"></stop>
            <stop stop-color="#2E4469" offset="100%"></stop>
        </linearGradient>
        <linearGradient x1="22.3176091%" y1="12.1591908%" x2="75.8078447%" y2="80.0601272%" id="linearGradient-26">
            <stop stop-color="#395273" offset="0%"></stop>
            <stop stop-color="#1D2D4A" offset="100%"></stop>
        </linearGradient>
    </defs>
    <g id="Update-on-Series-Page" stroke="none" stroke-width="1" fill="none" fill-rule="evenodd">
        <g id="Topics-Logos" transform="translate(-112.000000, -288.000000)">
            <g id="laravel-logo" transform="translate(110.000000, 277.000000)">
                <mask id="mask-2" fill="white">
                    <use xlink:href="#path-1"></use>
                </mask>
                <use id="Mask" fill="#D8D8D8" opacity="0" xlink:href="#path-1"></use>
                <g id="Group-17" mask="url(#mask-2)">
                    <g transform="translate(-3.000000, -1.960784)">
                        <ellipse id="shadow-copy-31" stroke="none" fill="url(#radialGradient-3)" fill-rule="evenodd" opacity="0.78250558" filter="url(#filter-4)" transform="translate(27.852564, 42.540797) rotate(1.000000) translate(-27.852564, -42.540797) " cx="27.8525641" cy="42.5407969" rx="15.5127278" ry="2.5924038"></ellipse>
                        <g id="Group-5-Copy-13" stroke="none" stroke-width="1" fill="none" fill-rule="evenodd" transform="translate(4.935897, 15.767238)">
                            <g id="Group-5-Copy">
                                <path d="M2.72791531,1.97619808 L24.5374209,2.95335088 C25.7814718,2.95530229 27.2308259,3.60559327 27.7746441,4.40581642 L43.6620297,21.9757734 C44.2058479,22.7759965 42.9876298,24.391373 41.743579,24.3894234 L16.9654926,24.3505547 C15.7214417,24.3486033 14.2720875,23.6983123 13.7282694,22.8980892 L1.296813,4.60532023 C0.752994882,3.80509707 1.48386446,1.97424822 2.72791531,1.97619808 Z" id="Rectangle-Copy-15" fill="#1B283E" transform="translate(22.454877, 13.182811) rotate(-5.000000) translate(-22.454877, -13.182811) "></path>
                                <path d="M1.79698031,4.34757365 C9.1842052,15.203045 13.528755,21.7077704 14.8306297,23.86175 C16.4069314,26.4697748 13.9405788,24.3860031 13.7786455,24.1477198 L1.34718907,5.85495085 C1.23739023,5.61414907 1.17709006,5.42445846 1.16628858,5.28587901 C1.137387,4.91508153 1.24659593,4.49118192 1.42113919,4.17052331 C1.50416087,4.01800171 1.66822736,3.78524885 1.78468981,3.66719552 C1.96178862,3.48767754 1.96588545,3.71447025 1.79698031,4.34757365 Z" id="Rectangle-Copy-16" fill="url(#linearGradient-5)" transform="translate(8.258202, 14.384449) rotate(-5.000000) translate(-8.258202, -14.384449) "></path>
                                <path d="M3.04346157,1.90346139 L26.09013,2.34600747 C27.3341809,2.34795889 28.783535,2.99824987 29.3273532,3.79847302 L43.4902276,21.6875672 C44.0340457,22.4877903 43.4663949,23.1349174 42.2223441,23.1329704 L17.4442576,23.0940991 C16.2002068,23.0921477 14.7508526,22.4418567 14.2070345,21.6416336 L1.77557807,3.34886463 C1.23175995,2.54864148 1.79941073,1.90151437 3.04346157,1.90346139 Z" id="Rectangle" fill="url(#linearGradient-6)" transform="translate(22.632903, 12.518216) rotate(-5.000000) translate(-22.632903, -12.518216) "></path>
                                <path d="M0.492205919,6.25232711 L14.3527791,22.6026337 C14.9866751,23.3504933 16.5470048,23.8668597 17.8378731,23.7559704 L17.8378731,23.7559704 L43.5484336,21.5473606 C43.8437178,21.5219944 44.1302298,21.4124443 44.3889445,21.2496 C44.1042031,21.9302085 43.4068858,22.6003676 42.6469003,22.6656577 L17.9597143,24.7864895 C16.7202274,24.8929717 15.2197119,24.3714748 14.6082191,23.6216936 L0.629748271,6.48200697 C0.574337923,6.41406563 0.528616723,6.33678175 0.492205919,6.25232711 Z" id="Combined-Shape" fill="url(#linearGradient-7)"></path>
                                <path d="M4.66320323,3.18888264 L3.53659716,3.55980977 L1.82626184,3.7381622 L15.4822617,20.0785424 C16.3709289,21.1418962 17.7240241,21.7026238 19.1043514,21.5795495 L43.7729913,19.3800157 L43.7729913,19.3800157 L42.4149781,17.9037435 L24.150641,4.2545388 L4.66320323,3.18888264 Z" id="Path-48" fill="#0E151F" opacity="0.349609375" filter="url(#filter-8)"></path>
                                <g id="Page-1-Copy-4" transform="translate(20.577368, 11.890428) rotate(-1.000000) translate(-20.577368, -11.890428) translate(8.590188, 6.014360)"></g>
                            </g>
                        </g>
                        <g id="Group-5-Copy-14" stroke="none" stroke-width="1" fill="none" fill-rule="evenodd" transform="translate(6.346154, 11.273774)">
                            <path d="M2.72791531,1.97619808 L24.5374209,2.95335088 C25.7814718,2.95530229 27.2308259,3.60559327 27.7746441,4.40581642 L43.6620297,21.9757734 C44.2058479,22.7759965 42.9876298,24.391373 41.743579,24.3894234 L16.9654926,24.3505547 C15.7214417,24.3486033 14.2720875,23.6983123 13.7282694,22.8980892 L1.296813,4.60532023 C0.752994882,3.80509707 1.48386446,1.97424822 2.72791531,1.97619808 Z" id="Rectangle-Copy-15" fill="#1B283E" transform="translate(22.454877, 13.182811) rotate(-5.000000) translate(-22.454877, -13.182811) "></path>
                            <path d="M9.59327252,15.6726208 L9.21602278,17.0133346 C9.84129471,17.7703842 10.1539307,18.148909 10.1539307,18.148909 C10.1539307,18.148909 10.3132096,17.7468669 10.6317674,16.9427827 L9.59327252,15.6726208 Z" id="Path-49-Copy" fill="url(#linearGradient-9)"></path>
                            <path d="M3.04346157,1.90346139 C3.8728288,1.90476527 11.5550516,2.05228063 26.09013,2.34600747 C27.3341809,2.34795889 28.783535,2.99824987 29.3273532,3.79847302 L43.4902276,21.6875672 C44.0340457,22.4877903 43.4663949,23.1349174 42.2223441,23.1329704 L17.4442576,23.0940991 C16.2002068,23.0921477 14.7508526,22.4418567 14.2070345,21.6416336 C6.28194229,9.97993639 2.13812349,3.88234674 1.77557807,3.34886463 C1.23175995,2.54864148 1.79941073,1.90151437 3.04346157,1.90346139 Z" id="Rectangle" fill="url(#linearGradient-10)" transform="translate(22.632903, 12.518216) rotate(-5.000000) translate(-22.632903, -12.518216) "></path>
                            <g id="Group-217" transform="translate(9.166667, 5.530417)">
                                <g id="Group-212">
                                    <path d="M21.0957793,3.36239915 C21.1182108,3.38221401 21.1375725,3.40264432 21.1531624,3.42316958 L23.576344,6.61347174 C23.6396505,6.6968195 23.6366444,6.77379895 23.5684532,6.81526446 L21.047521,8.3569143 L23.3684484,11.4125911 C23.4316119,11.4957506 23.4289799,11.5725132 23.3613594,11.6143838 L18.0988042,14.8320181 C18.0866858,14.8392873 18.0709763,14.8439396 18.0554876,14.8488826 C18.0495965,14.8506272 18.0452105,14.8538257 18.0386977,14.8552795 C17.9926416,14.8655688 17.9360153,14.8655688 17.8743288,14.8552795 C17.8641839,14.8535349 17.8535157,14.8500457 17.84333,14.8477196 C17.8221567,14.8430673 17.8006234,14.8389965 17.7784852,14.8320181 L7.62965037,11.6143838 C7.49849631,11.5728741 7.37851193,11.4959226 7.31521777,11.4125911 L0.0456730364,1.84168457 C0.0297717355,1.8207493 0.0183211353,1.80039557 0.0105194364,1.78062337 C0.00784525297,1.77393572 0.00881997072,1.7678296 0.00694758687,1.76114194 C0.00368532498,1.74892971 -1.65201186e-14,1.7364267 -1.65201186e-14,1.72508676 C0.000279263337,1.7175268 0.00446117948,1.71142068 0.00637694221,1.70444226 C0.00853039273,1.6951377 0.00966119225,1.68554237 0.0143016476,1.67740087 C0.0184427607,1.67071322 0.0267152808,1.66577017 0.0327216476,1.65995482 C0.0390473081,1.6529764 0.0437285664,1.64541644 0.0527620832,1.63989185 L2.68383924,0.0310746931 C2.75164421,-0.010358231 2.87381369,-0.010358231 3.00455908,0.0310746931 L8.07917696,1.63989185 C8.09722458,1.64570721 8.11357016,1.6529764 8.13027583,1.65966405 C8.14511626,1.6654794 8.16071768,1.67071322 8.1747971,1.67711011 C8.19242699,1.68554237 8.20773308,1.6951377 8.22442192,1.70444226 C8.23653765,1.71142068 8.25039622,1.7175268 8.26175096,1.72508676 C8.27980571,1.73671747 8.29429317,1.74892971 8.30998332,1.76114194 C8.3182701,1.7678296 8.32852058,1.77393572 8.33622641,1.78091414 C8.35865792,1.800729 8.37794947,1.82115932 8.39360955,1.84168457 L12.9340935,7.81957577 L15.1261533,6.47884634 L12.8050051,3.42287881 C12.7895455,3.40252508 12.777874,3.38188058 12.7702932,3.36239915 C12.767799,3.35542072 12.7683728,3.3493146 12.7665005,3.34262695 C12.7636391,3.33041471 12.7597551,3.3179117 12.7599617,3.30657177 C12.760233,3.29901181 12.764415,3.29290569 12.7659298,3.28592727 C12.7684842,3.2766227 12.7692141,3.26702737 12.7742554,3.25888588 C12.7783965,3.25219822 12.7862682,3.24725518 12.7922745,3.24143982 C12.7990011,3.2344614 12.8036823,3.22690144 12.812315,3.22137686 L15.443793,1.6125597 C15.5115306,1.57106708 15.6337441,1.57106708 15.7645129,1.6125597 L20.8391307,3.22137686 C20.8571784,3.22719221 20.873123,3.2344614 20.8902296,3.24114906 C20.9046691,3.24696441 20.9202705,3.25219822 20.93435,3.25859511 C20.9519799,3.26702737 20.967286,3.2766227 20.9839748,3.28592727 C20.9964914,3.29290569 21.0099491,3.29901181 21.0213038,3.30657177 C21.0391377,3.3179117 21.053846,3.33041471 21.0695362,3.34262695 C21.0782239,3.3493146 21.0880735,3.35542072 21.0957793,3.36239915 Z M20.8168001,3.82588271 L19.8961424,4.38880879 L18.6243395,5.16661214 L20.6393876,7.81957577 L22.8322492,6.47884634 L20.8168001,3.82588271 Z M22.6243536,11.2779657 L20.6079803,8.62325743 L19.3522904,9.38216088 L15.7654493,11.547798 L17.8008158,14.2275123 L22.6243536,11.2779657 Z M7.85520505,11.2779657 L17.1583535,14.2272215 L15.1234287,11.5480888 L10.283132,10.0334803 C10.263039,10.0270834 10.2468735,10.0195235 10.2303887,10.0131266 C10.2159492,10.0073112 10.2007894,10.0026589 10.1871109,9.99626206 C10.1697019,9.98812057 10.1556393,9.97910677 10.1406357,9.97096528 C10.1266547,9.96311455 10.1119535,9.9564269 10.0993553,9.94828541 C10.0844501,9.93869008 10.0720895,9.92822244 10.0593689,9.91833634 C10.0475316,9.90961332 10.0345325,9.90147182 10.0242581,9.89216726 C10.0116359,9.88082732 10.002,9.86919662 9.99178319,9.85785668 C9.98355405,9.84913365 9.97372131,9.84041063 9.96709577,9.8316876 L5.22254511,3.58512713 L2.76936719,2.80703302 L0.994014557,2.24468847 L7.85520505,11.2779657 Z M1.00983705,1.84168457 L5.23694405,3.18183246 L7.42842288,1.8413938 L3.20113583,0.501536678 L1.00983705,1.84168457 Z M11.2238541,8.86517608 L12.495477,8.0876635 L8.05724726,2.2443977 L7.13658955,2.80732379 L5.86478659,3.58512713 L10.3030164,9.42839293 L11.2238541,8.86517608 Z M15.9614905,2.08302168 L13.7697908,3.42316958 L17.9972987,4.76331747 L20.1883767,3.42287881 L15.9614905,2.08302168 Z M17.9824989,5.16661214 L15.5291409,4.38880879 L13.7533466,3.82588271 L15.7683948,6.47884634 L18.221131,7.25635892 L19.9975471,7.81957577 L17.9824989,5.16661214 Z M15.1380485,11.1450849 L18.365227,9.19577884 L19.9786566,8.22170737 L15.7542167,6.88243178 L13.2327036,8.42437239 L10.9345246,9.82965222 L15.1380485,11.1450849 Z" id="Shape" fill="url(#linearGradient-11)" filter="url(#filter-12)"></path>
                                    <path d="M20.8248341,3.51256191 C20.8462278,3.53122474 20.8646937,3.55046725 20.8795622,3.56979917 L23.1906264,6.57461865 C23.2510038,6.65312061 23.2481368,6.72562451 23.1831007,6.76467923 L20.7788087,8.21669827 L22.9923499,11.0947194 C23.0525909,11.1730441 23.0500807,11.2453438 22.9855889,11.28478 L17.966525,14.3153426 C17.9549674,14.3221891 17.9399847,14.3265709 17.9252126,14.3312266 C17.9195941,14.3328698 17.9154111,14.3358822 17.9091996,14.3372516 C17.8652744,14.3469426 17.8112682,14.3469426 17.7524358,14.3372516 C17.7427603,14.3356084 17.7325857,14.332322 17.7228713,14.3301311 C17.7026777,14.3257493 17.6821407,14.3219153 17.6610268,14.3153426 L7.9817649,11.28478 C7.85667916,11.2456836 7.7422463,11.1732061 7.68188068,11.0947194 L0.748688011,2.08026097 C0.733522442,2.06054287 0.722601646,2.04137249 0.715160921,2.02274984 C0.712610469,2.016451 0.713540088,2.01069989 0.711754336,2.00440105 C0.708643015,1.99289883 0.705128205,1.98112274 0.705128205,1.9704421 C0.705394547,1.96332168 0.709382972,1.95757056 0.711210095,1.95099786 C0.713263908,1.94223426 0.714342387,1.9331968 0.718768135,1.92552865 C0.722717644,1.91922981 0.730607406,1.91457415 0.736335866,1.9090969 C0.742368847,1.9025242 0.74683351,1.89540377 0.755449058,1.89020038 L3.26478981,0.374919106 C3.32945753,0.335895073 3.4459744,0.335895073 3.57067038,0.374919106 L8.4104925,1.89020038 C8.42770508,1.89567763 8.44329437,1.9025242 8.4592271,1.90882304 C8.47338087,1.91430029 8.48826044,1.91922981 8.50168843,1.92525479 C8.5185026,1.9331968 8.5331005,1.94223426 8.54901717,1.95099786 C8.56057232,1.95757056 8.57378968,1.96332168 8.58461904,1.9704421 C8.60183843,1.9813966 8.61565557,1.99289883 8.63061976,2.00440105 C8.63852312,2.01069989 8.64829932,2.016451 8.65564862,2.0230237 C8.67704225,2.04168654 8.69544121,2.06092904 8.71037671,2.08026097 L13.0407786,7.71060035 L15.1314147,6.44782031 L12.9176629,3.56952531 C12.9029186,3.55035493 12.8917871,3.53091069 12.8845571,3.51256191 C12.8821783,3.50598921 12.8827256,3.50023809 12.8809398,3.49393925 C12.8782109,3.48243703 12.8745066,3.47066094 12.8747036,3.4599803 C12.8749624,3.45285988 12.8789508,3.44710876 12.8803956,3.44053606 C12.8828318,3.43177246 12.8835279,3.422735 12.888336,3.41506685 C12.8922855,3.40876801 12.8997929,3.40411235 12.9055214,3.3986351 C12.9119367,3.3920624 12.9164014,3.38494197 12.9246346,3.37973859 L15.4343577,1.86445731 C15.4989611,1.82537705 15.61552,1.82537705 15.7402382,1.86445731 L20.5800603,3.37973859 C20.5972729,3.38521584 20.6124799,3.3920624 20.628795,3.39836124 C20.6425664,3.40383849 20.6574459,3.40876801 20.6708739,3.41479299 C20.6876881,3.422735 20.702286,3.43177246 20.7182027,3.44053606 C20.7301402,3.44710876 20.7429752,3.45285988 20.7538045,3.4599803 C20.7708133,3.47066094 20.7848411,3.48243703 20.7998053,3.49393925 C20.808091,3.50023809 20.8174848,3.50598921 20.8248341,3.51256191 Z M20.558763,3.94909875 L19.6807028,4.47929657 L18.4677445,5.21187879 L20.3895591,7.71060035 L22.4809599,6.44782031 L20.558763,3.94909875 Z M22.2826834,10.9679211 L20.359605,8.46755633 L19.1620141,9.18233749 L15.7411313,11.2220655 L17.6823242,13.7459824 L22.2826834,10.9679211 Z M8.19688347,10.9679211 L17.0695877,13.7457085 L15.1288161,11.2223393 L10.5124735,9.79578952 C10.4933102,9.78976454 10.4778926,9.78264412 10.4621705,9.77661914 C10.4483991,9.77114189 10.4339408,9.76676009 10.4208952,9.76073512 C10.4042916,9.75306697 10.3908797,9.74457723 10.3765703,9.73690908 C10.3632362,9.72951479 10.3492152,9.72321595 10.3371999,9.7155478 C10.3229843,9.70651034 10.3111957,9.69665129 10.2990636,9.68733996 C10.287774,9.67912409 10.2753764,9.67145594 10.2655773,9.66269234 C10.2535391,9.6520117 10.2443491,9.6410572 10.234605,9.63037656 C10.2267566,9.62216068 10.2173788,9.61394481 10.2110598,9.60572893 L5.68603317,3.72234059 L3.3463605,2.98948451 L1.65315104,2.45983441 L8.19688347,10.9679211 Z M1.66824145,2.08026097 L5.69976589,3.34249329 L7.78984794,2.07998711 L3.75815178,0.81802865 L1.66824145,2.08026097 Z M11.4096697,8.69540994 L12.6224563,7.96310159 L8.38957746,2.45956055 L7.51151734,2.98975837 L6.29855899,3.72234059 L10.5314378,9.22588163 L11.4096697,8.69540994 Z M15.928102,2.30756685 L13.8378093,3.56979917 L17.8697161,4.83203149 L19.9594158,3.56952531 L15.928102,2.30756685 Z M17.855601,5.21187879 L15.5157566,4.47929657 L13.8221259,3.94909875 L15.7439405,6.44782031 L18.0831919,7.18012867 L19.7774156,7.71060035 L17.855601,5.21187879 Z M15.1427595,10.8427659 L18.2206208,9.00679162 L19.7593992,8.08935221 L15.7304184,6.82794148 L13.3255724,8.28023438 L11.1337271,9.6038119 L15.1427595,10.8427659 Z" id="Shape-Copy-70" stroke="#1B283E" stroke-width="0.55" fill="#1B283E"></path>
                                    <g id="Path-85" stroke-linecap="round" stroke-linejoin="round">
                                        <use fill="black" fill-opacity="1" filter="url(#filter-15)" xlink:href="#path-14"></use>
                                        <use stroke="url(#linearGradient-13)" stroke-width="0.55" xlink:href="#path-14"></use>
                                    </g>
                                </g>
                                <g id="Page-1-Copy-4" transform="translate(11.609374, 6.380747) rotate(-1.000000) translate(-11.609374, -6.380747) translate(0.820913, 1.092285)"></g>
                            </g>
                        </g>
                        <path d="M9.41526127,13.7890934 L32.4619297,14.2316394 C33.7059806,14.2335909 35.1553347,14.8838818 35.6991529,15.684105 L23.8160573,34.9797311 C22.5720065,34.9777797 21.1226523,34.3274887 20.5788342,33.5272656 L8.14737777,15.2344966 C7.60355965,14.4342735 8.17121043,13.7871463 9.41526127,13.7890934 Z" id="Rectangle-Copy-104" stroke="none" fill="url(#linearGradient-16)" fill-rule="evenodd" opacity="0.376325335" transform="translate(21.820047, 24.384412) rotate(-5.000000) translate(-21.820047, -24.384412) "></path>
                        <g id="Group-11-Copy-11" stroke="none" stroke-width="1" fill="none" fill-rule="evenodd" transform="translate(0.000000, 15.814099)">
                            <ellipse id="Oval-Copy-7" fill="#F1476C" filter="url(#filter-17)" cx="21.45" cy="9.94630708" rx="1.65" ry="1.61764706"></ellipse>
                            <g id="Group-183" transform="translate(15.490794, 14.876930) scale(-1, 1) rotate(-64.000000) translate(-15.490794, -14.876930) translate(4.490794, 4.092616)">
                                <g id="Group-122" transform="translate(10.899815, 10.778953) rotate(393.000000) translate(-10.899815, -10.778953) translate(3.899815, 2.445620)">
                                    <polyline id="Path-34" stroke="url(#linearGradient-18)" stroke-width="0.705128205" stroke-linejoin="round" points="0.247142612 12.1000304 1.3990044 14.5887641 12.1994503 8.81938719 4.93882359 1.30652728"></polyline>
                                    <g id="Group-168" transform="translate(3.768643, 0.254530)">
                                        <g id="Group-32-Copy-17" transform="translate(-0.000000, 0.000000)">
                                            <ellipse id="Oval" fill="#F1476C" cx="1.11455749" cy="1.09270342" rx="1.11455749" ry="1.09270342"></ellipse>
                                            <path d="M1.06145866,0 C1.40848646,0 1.71661831,0.163268 1.91029697,0.415728268 C1.73270769,0.285361354 1.5124287,0.208129148 1.27375039,0.208129148 C0.68752296,0.208129148 0.212291731,0.674042117 0.212291731,1.24877489 C0.212291731,1.48328433 0.291413082,1.69967633 0.424912075,1.87369236 C0.167034078,1.68386666 0,1.38138017 0,1.04064574 C0,0.465912969 0.475231228,0 1.06145866,0 Z" id="Combined-Shape" fill-opacity="0.2" fill="#FFFFFF"></path>
                                        </g>
                                    </g>
                                    <g id="Group-32-Copy-15" transform="translate(0.636890, 13.736843)">
                                        <ellipse id="Oval" fill="#F1476C" cx="0.79611249" cy="0.780502441" rx="1" ry="1"></ellipse>
                                        <path d="M0.758184755,0 C1.0059798,0 1.2260104,0.116542898 1.36436059,0.29676992 C1.2370576,0.203622627 1.07998619,0.148663677 0.909821706,0.148663677 C0.491087828,0.148663677 0.151636951,0.481458655 0.151636951,0.891982065 C0.151636951,1.05913611 0.207914461,1.21340357 0.302906808,1.33756614 C0.1192036,1.20256907 0,0.986591519 0,0.743318387 C0,0.332794978 0.339450877,0 0.758184755,0 Z" id="Combined-Shape" fill-opacity="0.2" fill="#FFFFFF"></path>
                                    </g>
                                    <g id="Group-32-Copy-16" transform="translate(10.827130, 7.492823)">
                                        <ellipse id="Oval" fill="url(#linearGradient-19)" cx="1.27377998" cy="1.24880391" rx="1.27377998" ry="1.24880391"></ellipse>
                                        <path d="M1.21309561,0 C1.61043765,0 1.96316139,0.187287854 2.18443222,0.476731573 C1.98159978,0.326605642 1.72922814,0.237861884 1.45571473,0.237861884 C0.785740525,0.237861884 0.242619122,0.770333848 0.242619122,1.4271713 C0.242619122,1.69513933 0.333014673,1.94240833 0.485540784,2.14126752 C0.190821904,1.92428468 0,1.57864452 0,1.18930942 C0,0.532471964 0.543121404,0 1.21309561,0 Z" id="Combined-Shape" fill-opacity="0.2" fill="#FFFFFF"></path>
                                    </g>
                                </g>
                            </g>
                        </g>
                        <g id="Group-11-Copy-12" stroke="none" stroke-width="1" fill="none" fill-rule="evenodd" transform="translate(37.168686, 16.666667) scale(-1, 1) rotate(64.000000) translate(-37.168686, -16.666667) translate(24.668686, 4.901961)">
                            <ellipse id="Oval-Copy-7" fill="#F1476C" filter="url(#filter-20)" cx="16.5302943" cy="7.97911606" rx="1.65" ry="1.61764706"></ellipse>
                            <g id="Group-183" transform="translate(12.280743, 11.550994) scale(-1, 1) rotate(-64.000000) translate(-12.280743, -11.550994) translate(3.780743, 2.727464)">
                                <g id="Group-122" transform="translate(8.223639, 8.580459) rotate(393.000000) translate(-8.223639, -8.580459) translate(3.223639, 1.717714)">
                                    <polyline id="Path-34" stroke="url(#linearGradient-21)" stroke-width="0.705128205" stroke-linejoin="round" points="0.0722835324 10.0121316 1.36950525 11.6331748 7.57140312 6.860749 4.19217994 1.0418333"></polyline>
                                    <g id="Group-168" transform="translate(3.259070, 0.202964)">
                                        <g id="Group-32-Copy-17" transform="translate(-0.000000, 0.000000)">
                                            <ellipse id="Oval" fill="#F1476C" cx="0.888755342" cy="0.871328767" rx="1" ry="1"></ellipse>
                                            <path d="M0.846413993,0 C1.12380875,0 1.37003669,0.130824561 1.52440759,0.332973487 C1.38265685,0.227894703 1.20655387,0.165963528 1.01569679,0.165963528 C0.548235251,0.165963528 0.169282799,0.53748554 0.169282799,0.995781168 C0.169282799,1.18257899 0.232238765,1.35496097 0.338483625,1.49364567 C0.132681787,1.34179748 0,1.10099849 0,0.82981764 C0,0.371522012 0.378952453,0 0.846413993,0 Z" id="Combined-Shape" fill-opacity="0.2" fill="#FFFFFF"></path>
                                        </g>
                                    </g>
                                    <g id="Group-32-Copy-15" transform="translate(0.761790, 10.953847)">
                                        <ellipse id="Oval" fill="#F1476C" cx="0.634825244" cy="0.62237769" rx="1" ry="1"></ellipse>
                                        <path d="M0.611385741,0 C0.811086933,0 0.988425389,0.0938571935 1.1,0.239026769 C0.997953346,0.16432182 0.871104378,0.119864636 0.733662889,0.119864636 C0.396003868,0.119864636 0.122277148,0.388190763 0.122277148,0.719187814 C0.122277148,0.85446487 0.167998307,0.979273868 0.245118944,1.07957569 C0.0962420106,0.969822683 0,0.795590444 0,0.599323179 C0,0.268326127 0.27372672,0 0.611385741,0 Z" id="Combined-Shape" fill-opacity="0.2" fill="#FFFFFF"></path>
                                    </g>
                                    <g id="Group-32-Copy-16" transform="translate(6.530191, 5.844249)">
                                        <ellipse id="Oval" fill="url(#linearGradient-22)" cx="1.01572039" cy="0.995804305" rx="1.01572039" ry="1"></ellipse>
                                        <path d="M0.967330278,0 C1.28442275,0 1.56588029,0.149579714 1.74229677,0.380693936 C1.5805281,0.260573827 1.37910775,0.189672603 1.16079633,0.189672603 C0.626554573,0.189672603 0.193466056,0.614269189 0.193466056,1.13803562 C0.193466056,1.35150345 0.265405358,1.54849842 0.38681217,1.70698934 C0.151880758,1.53392623 0,1.25853367 0,0.948363017 C0,0.424596586 0.433088517,0 0.967330278,0 Z" id="Combined-Shape" fill-opacity="0.2" fill="#FFFFFF"></path>
                                    </g>
                                </g>
                            </g>
                        </g>
                        <path d="M19.0928913,30.6302349 L18.6858974,31.8765885 C19.3217014,32.6587245 19.6396034,33.0497925 19.6396034,33.0497925 C19.6396034,33.0497925 19.7917869,32.6587245 20.0961538,31.8765885 L19.0928913,30.6302349 Z" id="Path-49-Copy-11" stroke="none" fill="url(#linearGradient-23)" fill-rule="evenodd"></path>
                        <path d="M16.9775067,34.4323968 L16.5705128,35.6787504 C17.2063168,36.4608864 17.5242188,36.8519544 17.5242188,36.8519544 C17.5242188,36.8519544 17.6764023,36.4608864 17.9807692,35.6787504 L16.9775067,34.4323968 Z" id="Path-49-Copy-12" stroke="none" fill="url(#linearGradient-23)" fill-rule="evenodd" opacity="0.689127604"></path>
                        <path d="M18.6858974,31.7961003 C14.3808638,30.8391292 13.3138689,35.691741 17.2536334,35.8150012" id="Path-52-Copy-20" stroke="url(#linearGradient-24)" stroke-width="0.55" fill="none"></path>
                        <g id="Group-7-Copy-13" stroke="none" stroke-width="1" fill="none" fill-rule="evenodd" transform="translate(17.980769, 31.321537)">
                            <path d="M0.845277579,0.280713995 C0.654425388,0.489577882 0.682280733,0.593717735 0.845277579,0.772097425 C0.953942142,0.891017219 1.1651921,0.926624443 1.47902746,0.878919098 C1.5596555,0.749837906 1.59996952,0.620756713 1.59996952,0.491675521 C1.59996952,0.362594328 1.5596555,0.233513136 1.47902746,0.104431943 C1.18376233,0.0827107197 0.972512372,0.141471403 0.845277579,0.280713995 Z" id="Path-56-Copy-2" fill="#25395B"></path>
                            <path d="M0.469697399,0.104431943 C0.263643085,0.31329583 0.293717217,0.700539408 0.469697399,0.878919098 C0.587017521,0.997838892 0.841707185,0.997838892 1.23376639,0.878919098 C1.32081677,0.749837906 1.36434196,0.620756713 1.36434196,0.491675521 C1.36434196,0.362594328 1.32081677,0.233513136 1.23376639,0.104431943 C0.861756607,-0.0348106478 0.607066943,-0.0348106478 0.469697399,0.104431943 Z" id="Path-56" fill="url(#linearGradient-25)"></path>
                        </g>
                        <g id="Group-7-Copy-14" stroke="none" stroke-width="1" fill="none" fill-rule="evenodd" transform="translate(16.570513, 35.469350)">
                            <path d="M0.507166547,0.187142663 C0.392655233,0.326385255 0.40936844,0.395811823 0.507166547,0.514731617 C0.572365285,0.594011479 0.699115262,0.617749629 0.887416477,0.585946066 C0.935793301,0.499891937 0.959981713,0.413837809 0.959981713,0.327783681 C0.959981713,0.241729552 0.935793301,0.155675424 0.887416477,0.0696212957 C0.7102574,0.0551404798 0.583507423,0.094314269 0.507166547,0.187142663 Z" id="Path-56-Copy-2" fill="#25395B"></path>
                            <path d="M0.28181844,0.0696212957 C0.158185851,0.208863887 0.17623033,0.467026272 0.28181844,0.585946066 C0.352210512,0.665225928 0.505024311,0.665225928 0.740259836,0.585946066 C0.792490063,0.499891937 0.818605177,0.413837809 0.818605177,0.327783681 C0.818605177,0.241729552 0.792490063,0.155675424 0.740259836,0.0696212957 C0.517053964,-0.0232070986 0.364240166,-0.0232070986 0.28181844,0.0696212957 Z" id="Path-56" fill="url(#linearGradient-26)"></path>
                        </g>
                    </g>
                </g>
            </g>
        </g>
    </g>
</svg>